HIERARCHY
ROOT hip
{
	OFFSET 0.000000 0.000000 0.000000 
	CHANNELS 6 Xposition Yposition Zposition Xrotation Zrotation Yrotation
	JOINT abdomen
	{
		OFFSET 0.000000 3.402643 0.000000 
		CHANNELS 3 Xrotation Zrotation Yrotation
		JOINT chest
		{
			OFFSET 0.000000 8.438565 -0.680529 
			CHANNELS 3 Xrotation Zrotation Yrotation
			JOINT neck
			{
				OFFSET 0.000000 10.207942 -0.272212 
				CHANNELS 3 Xrotation Zrotation Yrotation
				JOINT head
				{
					OFFSET 0.000000 3.130431 0.000000 
					CHANNELS 3 Xrotation Zrotation Yrotation
					End Site
					{
						OFFSET 0.000000 3.130435 0.000000 
					}
				}
			}
			JOINT lCollar
			{
				OFFSET 3.470700 6.669187 -0.816635 
				CHANNELS 3 Yrotation Zrotation Xrotation
				JOINT lShldr
				{
					OFFSET 3.198488 0.000000 0.000000 
					CHANNELS 3 Zrotation Yrotation Xrotation
					JOINT lForeArm
					{
						OFFSET 10.139888 0.000000 0.000000 
						CHANNELS 3 Yrotation Zrotation Xrotation
						JOINT lHand
						{
							OFFSET 8.370511 0.000000 0.000000 
							CHANNELS 3 Zrotation Yrotation Xrotation
							End Site
							{
								OFFSET 4.083176 0.000000 0.000000 
							}
						}
					}
				}
			}
			JOINT rCollar
			{
				OFFSET -3.470700 6.669187 -0.816635 
				CHANNELS 3 Yrotation Zrotation Xrotation
				JOINT rShldr
				{
					OFFSET -3.198488 0.000000 0.000000 
					CHANNELS 3 Zrotation Yrotation Xrotation
					JOINT rForeArm
					{
						OFFSET -10.139888 0.000000 0.000000 
						CHANNELS 3 Yrotation Zrotation Xrotation
						JOINT rHand
						{
							OFFSET -8.370511 0.000000 0.000000 
							CHANNELS 3 Zrotation Yrotation Xrotation
							End Site
							{
								OFFSET -4.083176 0.000000 0.000000 
							}
						}
					}
				}
			}
		}
	}
	JOINT lThigh
	{
		OFFSET 5.308129 -1.633274 1.361059 
		CHANNELS 3 Xrotation Zrotation Yrotation
		JOINT lShin
		{
			OFFSET -2.041588 -20.007561 0.000000 
			CHANNELS 3 Xrotation Zrotation Yrotation
			JOINT lFoot
			{
				OFFSET 0.000000 -19.190928 -1.224953 
				CHANNELS 3 Xrotation Yrotation Zrotation
				End Site
				{
					OFFSET 0.000000 -2.449906 4.627600 
				}
			}
		}
	}
	JOINT rThigh
	{
		OFFSET -5.308129 -1.633274 1.361059 
		CHANNELS 3 Xrotation Zrotation Yrotation
		JOINT rShin
		{
			OFFSET 2.041588 -20.007561 0.000000 
			CHANNELS 3 Xrotation Zrotation Yrotation
			JOINT rFoot
			{
				OFFSET 0.000000 -19.190928 -1.224953 
				CHANNELS 3 Xrotation Yrotation Zrotation
				End Site
				{
					OFFSET 0.000000 -2.449906 4.627600 
				}
			}
		}
	}
}
MOTION
Frames: 14
Frame Time: 0.033333
-35.035431 18.307058 24.759346 95.167053 32.846210 114.446663 0.000000 0.000000 0.000000 5.500900 -10.140077 4.135778 36.869888 39.394573 3.378053 -0.251727 -40.317268 -22.462395 44.996254 29.990746 -25.000000 140.379654 -47.489494 33.827831 -21.411203 -48.215099 118.586128 -1.666648 -6.269714 -60.847355 -45.000000 -29.997129 -22.234657 146.885834 13.700150 95.884193 -48.044609 -55.721577 -41.864578 -2.258468 14.483409 -79.463448 -50.829773 1.445683 10.921071 89.829468 -13.349166 -6.444360 14.948564 -26.577087 -20.802979 -80.440422 -13.095043 1.298785 96.309708 12.782397 10.366909 16.369608 -31.580767 11.973107 
-36.387653 18.239574 25.308002 86.752602 34.477104 102.529938 0.000000 0.000000 0.000000 4.057623 0.475491 6.445576 34.657608 26.792715 1.991452 -15.095951 -43.022167 -6.946033 44.996254 29.990746 -25.000000 -0.905965 -117.091461 -140.643463 -59.071533 -22.689190 65.277611 -8.522961 -10.619802 -57.968517 -45.000000 -29.999762 -22.996750 151.339355 12.619336 96.128159 -35.614075 -55.823032 -33.762627 -12.769921 9.543734 -82.100029 -58.701679 11.284917 11.696247 98.422089 -4.542426 -4.313719 15.993086 -23.478201 -20.649420 -78.081017 -7.460500 2.805519 98.205994 27.371572 14.459748 17.250021 -28.877069 10.026074 
-37.113796 18.684906 25.527485 90.494095 34.029671 108.978020 0.000000 0.000000 0.000000 3.466173 -1.485884 6.027409 38.595360 18.209206 1.195088 -19.468515 -39.687035 0.326352 44.996254 29.990746 -25.000000 -160.112274 -66.299950 31.682365 -59.948673 -0.310045 51.092007 -9.186290 -16.911787 -55.842476 -45.000000 -29.996695 -24.996220 150.930527 9.970894 96.574570 -41.655594 -49.975292 -44.606552 -10.012822 13.629952 -81.259308 -65.849754 5.888988 8.217748 105.449501 -1.034379 -3.450081 16.412201 -22.492847 -14.395326 -78.734962 -13.437337 1.085225 104.021591 25.028395 14.163882 13.537119 -23.267597 7.479804 
-37.411701 19.166388 25.656214 97.045387 34.330299 115.824287 0.000000 0.000000 0.000000 5.093363 -5.515224 5.111204 44.870831 15.388768 0.912180 -16.601274 -37.073162 2.503712 44.996254 29.990746 -25.000000 -141.905914 -67.417763 22.405451 -57.449181 15.909898 43.024311 -10.111832 -21.337811 -53.611984 -45.000000 -29.996695 -24.996220 152.221420 8.120628 96.903175 -42.618137 -45.916862 -47.062500 -8.758945 9.838049 -80.654556 -68.132607 1.650478 6.391904 108.817444 -1.552385 -3.537524 16.215126 -22.339050 -15.878807 -79.571510 -16.941833 0.017271 107.209511 17.274282 12.136705 12.293597 -20.090010 7.350345 
-37.704185 19.509253 25.824661 102.828117 34.393070 120.705109 0.000000 0.000000 0.000000 6.813762 -8.783525 4.357441 50.836662 16.570122 0.948465 -12.591497 -34.936157 1.129631 44.996254 29.990746 -25.000000 -123.453896 -64.663963 11.200128 -50.230206 28.590681 23.987482 -8.635337 -21.941690 -53.502960 -45.000000 -29.996695 -24.996220 153.046066 7.552344 96.993599 -41.195812 -42.422508 -47.041634 -3.552307 15.828801 -79.150818 -70.411392 0.624420 5.430518 109.956726 -1.927198 -3.600402 17.801170 -23.761786 -17.389511 -78.889694 -17.166845 -0.070032 106.349831 10.966238 10.514303 13.387305 -19.993349 7.720253 
-37.780060 19.551283 25.848284 103.741684 34.819546 120.984428 0.000000 0.000000 0.000000 6.936212 -8.695776 4.365617 54.411797 18.483316 1.071589 -9.208984 -34.238277 0.000000 44.996254 29.990746 -25.000000 -114.766808 -60.363014 5.709361 -45.166477 32.989521 5.637510 -7.145150 -21.090738 -53.927498 -45.000000 -29.996695 -24.996220 152.873779 7.781182 96.950844 -38.762459 -41.810642 -42.728111 -0.501350 20.387371 -78.046783 -72.491875 3.016575 5.491263 108.931648 -0.696677 -3.339340 18.331589 -23.833941 -21.315489 -78.997643 -15.018778 0.612317 104.501411 10.859434 10.384405 15.385855 -21.099073 7.680679 
-37.780174 19.437565 25.782602 102.241516 35.400219 119.442062 0.000000 0.000000 0.000000 6.357863 -7.251130 4.704509 55.810951 20.464424 1.233253 -6.929091 -34.464012 -2.632767 44.996254 29.990746 -25.000000 -108.615501 -56.224819 2.100591 -44.066505 37.665104 -6.557135 -7.783902 -21.085024 -53.029865 -45.000000 -29.996695 -24.996220 153.098312 8.319678 96.848755 -36.198994 -41.442024 -37.103596 -2.067311 20.036760 -78.615959 -74.580910 6.473290 5.827647 106.098724 1.315779 -2.921980 18.462517 -23.543072 -24.211863 -78.880722 -13.319950 1.122172 101.747726 14.873108 11.223862 15.545529 -23.558628 7.389087 
-37.708057 19.208521 25.671795 99.097954 36.032692 116.380356 0.000000 0.000000 0.000000 5.342963 -4.755282 5.271391 56.131474 20.913389 1.255013 -6.760966 -34.175179 -3.626323 44.996254 29.990746 -25.000000 -103.818703 -51.764614 -0.550571 -48.023483 45.967510 -7.864044 -6.789420 -23.005789 -52.288952 -45.000000 -29.996695 -24.996220 153.508087 8.872803 96.731964 -35.195972 -41.262516 -31.115234 -1.750478 18.718157 -78.739922 -76.621819 10.329766 6.330665 101.113243 4.050177 -2.308985 18.746969 -23.011169 -22.270596 -79.164108 -11.825751 1.604615 98.418861 20.203459 12.408330 15.997444 -25.520239 9.608916 
-37.651703 18.942278 25.613775 96.315376 36.736824 112.865433 0.000000 0.000000 0.000000 5.025083 -2.565180 5.747778 55.772812 19.713055 1.164697 -7.417181 -34.185257 -3.934983 44.996254 29.990746 -25.000000 -100.300163 -48.763035 -2.353405 -55.227291 53.671062 -0.375375 -4.294014 -24.761383 -52.594299 -45.000000 -29.996695 -24.996220 153.989883 9.165384 96.676094 -33.966118 -40.081356 -29.258894 -0.247798 19.290459 -78.245865 -77.103943 12.986772 6.972007 96.504990 6.599722 -1.734742 17.816078 -20.868158 -24.760611 -78.908890 -9.970181 2.078929 94.080772 24.316336 13.254480 17.868982 -29.134005 10.264207 
-37.562229 18.597952 25.558601 92.866684 37.358253 108.280434 0.000000 0.000000 0.000000 4.744952 0.077648 6.337899 55.207512 17.487818 0.985139 -8.915627 -33.513145 -2.816584 44.996254 29.990746 -25.000000 -99.494743 -46.685383 -2.804587 -70.992950 59.831577 15.243389 -4.303761 -24.786354 -51.923134 -45.000000 -29.996695 -24.996220 154.705093 9.563632 96.581039 -32.524414 -40.003368 -27.031441 2.787735 16.349955 -77.514442 -76.836136 14.697672 7.551622 90.796219 10.333825 -0.935455 17.914063 -21.668762 -20.089346 -78.655052 -7.353430 2.870656 88.732712 28.084124 13.977915 19.440886 -33.705860 14.303634 
-37.532993 18.321568 25.541601 90.788818 37.815109 104.467247 0.000000 0.000000 0.000000 5.115360 1.493814 6.642940 54.640057 15.164642 0.791394 -10.187828 -31.455973 -1.512376 44.996254 29.990746 -25.000000 -100.382324 -45.817986 -2.458688 -86.630043 60.177773 26.203506 -6.529148 -22.414089 -51.097080 -45.000000 -29.996695 -24.996220 155.529419 10.212205 96.441025 -31.064175 -41.216591 -23.693007 3.485176 14.070326 -77.419380 -75.381256 15.318692 8.187632 86.456230 13.270187 -0.236214 17.814301 -22.073412 -18.932619 -78.284813 -5.664095 3.347230 83.094002 30.243296 14.198693 22.759644 -38.121677 16.227814 
-37.480812 18.166660 25.542168 90.379311 38.123779 101.829475 0.000000 0.000000 0.000000 6.113028 1.270913 6.564128 53.955647 13.885738 0.696320 -10.416279 -30.583525 -0.797178 44.942017 30.000000 -24.982582 -101.400650 -47.551479 -1.926834 -104.344032 54.532711 38.500572 -7.993243 -19.460192 -51.370605 -45.000000 -29.996695 -24.996220 155.905975 10.805488 96.334885 -29.299507 -42.870907 -20.421993 4.858144 14.224844 -77.111855 -71.990372 13.427161 8.614039 81.510796 15.156791 0.225884 17.457888 -21.139524 -19.221697 -78.052391 -4.970819 3.563094 78.262535 30.947947 13.973317 24.592131 -41.729034 21.213427 
-37.471458 18.021807 25.515087 90.468872 38.116920 99.428986 0.000000 0.000000 0.000000 7.222311 0.659941 6.387193 52.992889 13.192509 0.663180 -9.686915 -30.723673 -1.515632 -44.999458 29.994751 24.985355 -102.803505 -49.777672 -1.140093 -113.724327 47.218254 47.749290 -8.434244 -17.321541 -51.819920 -45.000000 -30.000000 -22.998709 156.246445 11.004750 96.292953 -26.370502 -45.386513 -17.262711 5.670578 13.765601 -76.944168 -68.923828 11.845240 9.031040 77.681801 15.752913 0.399874 17.714609 -22.083904 -16.931593 -78.100128 -4.277574 3.758275 73.522018 30.979839 13.526136 28.082716 -44.601486 23.105810 
-37.387478 18.022579 25.548594 92.515549 38.491539 98.508507 0.000000 0.000000 0.000000 8.975471 -2.468517 5.629858 51.046021 15.925896 0.896057 -8.803355 -31.603621 -3.809895 -44.941219 30.000000 24.953901 -108.380829 -55.768547 1.940090 -120.513596 37.044609 59.234665 -9.250452 -12.379108 -52.592052 -45.000000 -29.998276 -17.982349 156.446930 12.745036 96.019592 -23.440289 -48.435436 -12.255772 4.891265 14.529987 -77.165459 -64.216133 7.724104 9.186789 73.259064 14.660461 0.300320 18.666819 -22.063843 -16.291533 -77.825714 -4.180059 3.788967 70.047623 29.532778 12.725444 29.419977 -46.141300 27.103800 
